# xmcd
#
# Track frame offsets:
#  150
#  21171
#  49066
#  76376
#  101560
#  131519
#  141554
#  163807
#  187669
#  214028
#  228685
#  246282
#  259352
#
# Disc length: 3728 seconds
#
# Revision: 0
# Processed by: cddbd v1.5.1PL0 Copyright (c) Steve Scherf et al.
# Submitted via: AltoMP3_Maker 3.0
#
DISCID=ba0e8e0d
DTITLE=Old No. Eight - Communist Country
DYEAR=1900
DGENRE=
TTITLE0=Dance on Graves
TTITLE1=Take Your Ticket
TTITLE2=Blame Jesus
TTITLE3=War On Drugs
TTITLE4=Old Judge Scranton
TTITLE5=Talkin' George H. W. Bush Jr. Blues
TTITLE6=All Our Leaders
TTITLE7=Dark Ages
TTITLE8=The Day That Our Family Died
TTITLE9=War Profiteer
TTITLE10=My American Dream
TTITLE11=Somewhere Down The Line
TTITLE12=End Of The World
EXTD=
EXTT0=
EXTT1=
EXTT2=
EXTT3=
EXTT4=
EXTT5=
EXTT6=
EXTT7=
EXTT8=
EXTT9=
EXTT10=
EXTT11=
EXTT12=
PLAYORDER=
